<svg width="800" height="600" xmlns="http://www.w3.org/2000/svg">
  <!-- Created with Method Draw - http://github.com/duopixel/Method-Draw/ -->

  <g>
    <title>background</title>
    <rect x="-1" y="-1" width="802" height="602" id="canvas_background" fill="#666666"/>
  </g>
  <g>
    <title>Layer 1</title>
    <rect fill="#b2b2b2" stroke="#ff0000" stroke-width="0" x="410.02026" y="80" width="380" height="500" id="svg_1">Spielen (Browser)</rect>
    <rect fill="#b2b2b2" stroke="#ff0000" stroke-width="0" x="10" y="80" width="380" height="500" id="svg_30">Testen (Browser)</rect>
    <g id="svg_16">
      <ellipse fill="#56ff56" stroke="#000" cx="600.52026" cy="525.5" id="svg_10" rx="37" ry="12.5"/>
      <rect fill="#56ff56" x="563.52026" y="462" width="73" height="65" id="svg_11" stroke-width="0" stroke="#000"/>
      <ellipse fill="#56ff56" stroke="#000" cx="599.52026" cy="458.5" id="svg_12" rx="37" ry="12.5"/>
      <ellipse fill="#56ff56" stroke="#000" cx="672.52026" cy="542" id="svg_13"/>
      <line fill="#56ff56" stroke="#000" x1="562.52026" y1="460" x2="563.52026" y2="528" id="svg_14" stroke-linejoin="null" stroke-linecap="null"/>
      <line fill="#56ff56" stroke="#000" x1="636.51341" y1="460" x2="637.51341" y2="528" id="svg_15" stroke-linejoin="null" stroke-linecap="null"/>
    </g>
    <path
      fill="#ff00ff"
      stroke="#000"
      stroke-width="0"
      d="m458.36386,518.13635c4.17816,-2.88556 8.17276,-6.20691 11.69281,-9.19363l-105.45374,-1.36807l-14.46548,11.79126l-45.82492,-1.01013c5.74283,-5.37109 12.03232,-11.67761 16.69571,-16.41528l-16.58728,-15.92505l48.89154,0l9.94919,9.95004l107.66724,0l-13.35666,-9.92981c4.12103,-3.12836 10.22195,-7.30261 13.53012,-9.49246l36.21014,25.30545l-36.29218,25.69449l-12.65649,-9.4068l0,0z"
      id="svg_20">Lokaler GameServer</path>
    <path
      fill="#56ffff"
      stroke-width="0"
      d="m113.21275,175.66362c-8.35954,-7.47018 -17.39195,-13.44595 -24.78501,-14.26669c-0.40965,-0.05447 -0.81987,-0.0817 -1.25877,-0.09442l-48.72063,0c-0.77503,0 -1.551,0.28326 -2.09317,0.79352c-0.54131,0.49936 -0.86347,1.21109 -0.86347,1.92471l0,113.576c0,0.71359 0.30788,1.39993 0.86347,1.92474c0.55652,0.51199 1.30324,0.78076 2.09317,0.78076l88.10075,0c0.77562,0 1.50803,-0.26877 2.07889,-0.78076c0.55559,-0.52481 0.86346,-1.21115 0.86346,-1.92474l0,-75.57695c-0.1611,-8.7775 -7.64206,-18.33401 -16.27869,-26.35617zm10.36438,99.20033l-82.18604,0l0,-108.13768l45.77788,0l0,0.01453c1.99084,-0.10895 3.71826,1.69595 5.03589,5.84137c1.20055,3.95663 1.50798,9.09897 1.49314,12.66519c0.01484,2.61111 -0.13195,4.37427 -0.13195,4.37427l-0.2338,2.86713l3.14777,0.04175c0.01435,0 7.27542,0.0799 14.39018,1.55975c6.85117,1.36005 12.19455,4.06555 12.69258,7.13422c0.01434,0.2688 0.02933,0.55206 0.01434,0.80804l0,72.83144l0,0z"
      id="svg_21"
      stroke="#ff0000"/>
    <path
      fill="#00ffff"
      stroke="#000000"
      d="m91.40149,226.35509c2.46036,-2.76613 2.95459,-6.54089 1.61618,-9.71542l-4.93842,5.63234l-4.8688,-0.92567l-1.61328,-4.58643l4.92672,-5.61937c-3.38864,-0.83371 -7.1217,0.17288 -9.57135,2.9281c-2.583,2.90463 -3.00584,6.92685 -1.40722,10.19023l-12.87314,14.47774c-1.36963,1.53925 -1.20313,3.87375 0.37063,5.21286c1.57419,1.33815 3.96095,1.17639 5.33011,-0.36275l12.85854,-14.46344c3.53955,1.11568 7.57534,0.14954 10.17004,-2.76819l0,0z"
      id="svg_24"/>
    <path
      fill="#00ffff"
      stroke="#000000"
      stroke-width="null"
      stroke-opacity="null"
      fill-opacity="null"
      d="m172.17818,206.61256c0,0 1.60464,-7.67419 0,-10.27295c-1.60622,-2.60028 -2.25212,-4.33174 -5.7867,-5.571s-2.24123,-0.99225 -4.81551,-0.86551c-2.57585,0.12505 -4.71277,1.73114 -4.71277,2.59695c0,0 -1.6062,0.12503 -2.25211,0.86899c-0.64748,0.74226 -1.71048,4.20497 -1.71048,5.07397s0.53227,6.68503 1.063,7.92261l-0.63501,0.24693c-0.53073,7.17712 2.14784,8.04446 2.14784,8.04446c0.95872,6.6868 1.92992,3.83978 1.92992,5.57091s-0.97119,1.11589 -0.97119,1.11589s-0.85445,2.7204 -3.00229,3.7114c-2.13692,0.98892 -14.03401,6.30978 -14.9912,7.42386c-0.97119,1.11758 -0.8669,6.31497 -0.8669,6.31497l50.99228,0c0,0 0.11516,-5.19739 -0.85527,-6.31497c-0.95819,-1.11572 -12.85507,-6.43494 -15.00291,-7.42386c-2.13693,-0.991 -2.99139,-3.7114 -2.99139,-3.7114s-0.96964,0.6156 -0.96964,-1.11589s0.96964,1.11589 1.94083,-5.57091c0,0 2.66768,-0.86734 2.13539,-8.04446l-0.6459,0z"
      id="svg_25"/>
    <text fill="#000000" stroke-width="0" stroke-opacity="null" x="84.30617" y="127.0008" id="svg_31" font-size="24" font-family="Helvetica, Arial, sans-serif" text-anchor="start" xml:space="preserve" stroke="#ff0000">Entwickeln (Atom)</text>
    <g id="svg_35">
      <rect fill="#ffffff" stroke-opacity="null" x="216.99945" y="260.99914" width="120" height="90" id="svg_33" stroke="#000"/>
      <rect fill="#00ffff" x="216.99945" y="250.99914" width="120" height="10" id="svg_34" stroke="#000000"/>
    </g>
    <g id="svg_26">
      <rect fill="#ffffff" stroke-opacity="null" x="161.99972" y="313.99888" width="120" height="90" id="svg_22" stroke="#000"/>
      <rect fill="#00ffff" x="161.99972" y="303.99888" width="120" height="10" id="svg_23" stroke="#000000"/>
    </g>
    <text fill="#000000" stroke="#ff0000" stroke-width="0" stroke-opacity="null" x="189.50093" y="230.00034" id="svg_36" font-size="24" font-family="Helvetica, Arial, sans-serif" text-anchor="start" xml:space="preserve">Testen (Browser)</text>
    <text fill="#000000" stroke-width="0" stroke-opacity="null" x="70.28303" y="561.99873" id="svg_37" font-size="24" font-family="Helvetica, Arial, sans-serif" text-anchor="start" xml:space="preserve" stroke="#ff0000">Lokaler GameServer</text>
    <path
      fill="#56ffff"
      stroke-width="0"
      d="m126.40698,384.85495c1.95532,-1.13159 3.82471,-2.43408 5.47205,-3.60535l-49.35055,-0.5365l-6.76961,4.62402l-21.44527,-0.39612c2.68754,-2.10632 5.63092,-4.5795 7.81331,-6.43738l-7.76257,-6.24518l22.8804,0l4.65604,3.90201l50.38641,0l-6.25067,-3.89404c1.92857,-1.22684 4.78369,-2.8638 6.33188,-3.72256l16.94571,9.92377l-16.9841,10.07629l-5.92303,-3.68896l0,0z"
      id="svg_39"
      stroke="#000"
      transform="rotate(71.6286 101.814 378.544)">Lokaler GameServer</path>
    <path
      fill="#56ffff"
      stroke-width="0"
      d="m317.40637,417.89056c1.95532,-1.13159 3.82474,-2.43408 5.47205,-3.60535l-49.35056,-0.5365l-6.76959,4.62402l-21.44528,-0.39612c2.68756,-2.10632 5.63094,-4.5795 7.81332,-6.43738l-7.76257,-6.24518l22.8804,0l4.65607,3.90201l50.38638,0l-6.25067,-3.89404c1.92859,-1.22684 4.78372,-2.8638 6.33188,-3.72256l16.94574,9.92377l-16.98413,10.07629l-5.92303,-3.68896l0,0z"
      id="svg_41"
      stroke="#000"
      transform="rotate(-65.3685 292.813 411.579)">Lokaler GameServer</path>
    <path
      fill="#56ff56"
      stroke="#000000"
      stroke-width="null"
      stroke-opacity="null"
      d="m520.23383,206.61256c0,0 1.60468,-7.67419 0,-10.27295c-1.6062,-2.60028 -2.25214,-4.33174 -5.78668,-5.571s-2.24121,-0.99225 -4.81552,-0.86551c-2.57584,0.12505 -4.71277,1.73114 -4.71277,2.59695c0,0 -1.6062,0.12503 -2.25211,0.86899c-0.64746,0.74226 -1.71045,4.20497 -1.71045,5.07397s0.53226,6.68503 1.06299,7.92261l-0.63501,0.24693c-0.53073,7.17712 2.14783,8.04446 2.14783,8.04446c0.95874,6.6868 1.92993,3.83978 1.92993,5.57091s-0.97119,1.11589 -0.97119,1.11589s-0.85446,2.7204 -3.00229,3.7114c-2.13693,0.98892 -14.03403,6.30978 -14.99118,7.42386c-0.97119,1.11758 -0.86691,6.31497 -0.86691,6.31497l50.99228,0c0,0 0.11517,-5.19739 -0.85529,-6.31497c-0.95819,-1.11572 -12.85504,-6.43494 -15.00287,-7.42386c-2.13696,-0.991 -2.99139,-3.7114 -2.99139,-3.7114s-0.96967,0.6156 -0.96967,-1.11589s0.96967,1.11589 1.9408,-5.57091c0,0 2.66772,-0.86734 2.13544,-8.04446l-0.64594,0z"
      id="svg_5"/>
    <text style="cursor: move;" fill="#000000" stroke-width="0" stroke-opacity="null" x="504.65138" y="127.0008" id="svg_17" font-size="24" font-family="Helvetica, Arial, sans-serif" text-anchor="start" xml:space="preserve" stroke="#ff0000">Spielen (Browser)</text>
    <g id="svg_27">Externer GameServer</g>
    <text fill="#000000" stroke-width="0" stroke-opacity="null" x="489.30793" y="561.99873" id="svg_28" font-size="24" font-family="Helvetica, Arial, sans-serif" text-anchor="start" xml:space="preserve" stroke="#ff0000">Externer GameServer</text>
    <path
      fill="#56ff56"
      stroke-width="0"
      d="m552.42725,416.85495c1.95532,-1.13159 3.82471,-2.43408 5.47205,-3.60535l-49.35056,-0.5365l-6.76959,4.62402l-21.44528,-0.39612c2.68753,-2.10632 5.63092,-4.5795 7.81329,-6.43738l-7.76254,-6.24518l22.8804,0l4.65604,3.90201l50.38644,0l-6.25067,-3.89404c1.92853,-1.22684 4.78363,-2.8638 6.33185,-3.72256l16.94568,9.92377l-16.98407,10.07629l-5.92303,-3.68896l0,0z"
      id="svg_29"
      stroke="#000"
      transform="rotate(-120 527.834 410.544)">Lokaler GameServer</path>
    <g id="svg_49">
      <rect fill="#ffffff" stroke-opacity="null" x="633.15183" y="260.99914" width="120" height="90" id="svg_47" stroke="#000"/>
      <rect fill="#56ff56" x="633.15183" y="250.99914" width="120" height="10" id="svg_48" stroke="#000000"/>
    </g>
    <g id="svg_52">
      <rect fill="#ffffff" stroke-opacity="null" x="451.12711" y="260.99914" width="120" height="90" id="svg_50" stroke="#000"/>
      <rect fill="#56ff56" x="451.12711" y="250.99914" width="120" height="10" id="svg_51" stroke="#000000"/>
    </g>
    <path
      transform="rotate(-60 670.834 409.544)"
      fill="#56ff56"
      stroke-width="0"
      d="m695.42725,415.85495c1.95532,-1.13159 3.82471,-2.43408 5.47205,-3.60535l-49.35059,-0.5365l-6.76959,4.62402l-21.44525,-0.39612c2.6875,-2.10632 5.63092,-4.5795 7.81329,-6.43738l-7.76251,-6.24518l22.88037,0l4.65601,3.90201l50.38647,0l-6.25067,-3.89404c1.92853,-1.22684 4.78363,-2.8638 6.33185,-3.72256l16.94568,9.92377l-16.98407,10.07629l-5.92303,-3.68896l0,0z"
      id="svg_53"
      stroke="#000">Lokaler GameServer</path>
    <path
      fill="#56ff56"
      stroke="#000000"
      stroke-width="null"
      stroke-opacity="null"
      d="m702.25854,208.61256c0,0 1.60468,-7.67419 0,-10.27295c-1.6062,-2.60028 -2.25214,-4.33174 -5.78668,-5.571s-2.24121,-0.99225 -4.81555,-0.86551c-2.57581,0.12505 -4.71277,1.73114 -4.71277,2.59695c0,0 -1.6062,0.12503 -2.25208,0.86899c-0.64746,0.74226 -1.71045,4.20497 -1.71045,5.07397s0.53223,6.68503 1.06299,7.92261l-0.63501,0.24693c-0.5307,7.17712 2.14783,8.04446 2.14783,8.04446c0.95874,6.6868 1.92993,3.83978 1.92993,5.57091s-0.97119,1.11589 -0.97119,1.11589s-0.85449,2.7204 -3.00232,3.7114c-2.1369,0.98892 -14.034,6.30978 -14.99115,7.42386c-0.97119,1.11758 -0.86688,6.31497 -0.86688,6.31497l50.99225,0c0,0 0.11517,-5.19739 -0.85529,-6.31497c-0.95819,-1.11572 -12.85504,-6.43494 -15.00287,-7.42386c-2.13696,-0.991 -2.99139,-3.7114 -2.99139,-3.7114s-0.96967,0.6156 -0.96967,-1.11589s0.96967,1.11589 1.9408,-5.57091c0,0 2.66772,-0.86734 2.13544,-8.04446l-0.64594,0z"
      id="svg_54"/>
    <text fill="#000000" stroke-width="0" stroke-opacity="null" x="320.30617" y="464.0008" id="svg_55" font-size="24" font-family="Helvetica, Arial, sans-serif" text-anchor="start" xml:space="preserve" stroke="#ff0000">Publish (Shift-P)</text>
    <text
      stroke="#ff0000"
      transform="matrix(4.08343 0 0 1.91376 -78.6275 -79.6259)"
      xml:space="preserve"
      text-anchor="start"
      font-family="Helvetica, Arial, sans-serif"
      font-size="24"
      id="svg_56"
      y="109"
      x="25.5"
      fill-opacity="null"
      stroke-opacity="null"
      stroke-width="0"
      fill="#000000"/>
    <text fill="#000000" stroke-width="0" stroke-opacity="null" x="74.19679" y="54.0008" id="svg_57" font-size="35" font-family="Helvetica, Arial, sans-serif" text-anchor="start" xml:space="preserve" stroke="#ff0000">Programmiersprachen - Multiplayer Game</text>
    <path
      id="svg_58"
      d="m513.03967,317.59891l-1.35559,-4.358c0.39154,-0.32153 0.77307,-0.66403 1.12323,-1.03412l4.71039,1.24933c0.49646,-0.6745 0.93103,-1.37787 1.31116,-2.11935l-3.51294,-3.13629c0.16821,-0.46054 0.3172,-0.92902 0.42322,-1.41721l4.73059,-1.09442c0.03259,-0.40024 0.06458,-0.80176 0.06458,-1.22168s-0.03198,-0.80972 -0.06458,-1.22046l-4.73059,-1.09439c-0.10602,-0.47897 -0.255,-0.94873 -0.42322,-1.40802l3.51294,-3.13504c-0.38013,-0.74274 -0.8147,-1.45657 -1.31116,-2.12057l-4.71039,1.24011c-0.35016,-0.3609 -0.73169,-0.70212 -1.12323,-1.02493l1.35559,-4.35797c-0.73059,-0.45929 -1.50476,-0.85953 -2.29803,-1.21124l-3.39804,3.2439c-0.49731,-0.15741 -1.01654,-0.28345 -1.53473,-0.38181l-1.18509,-4.37643c-0.43427,-0.02887 -0.87891,-0.05902 -1.32355,-0.05902s-0.88928,0.03015 -1.32254,0.05902l-1.1861,4.37643c-0.51923,0.09836 -1.02698,0.2244 -1.53607,0.38181l-3.39667,-3.2439c-0.79453,0.3609 -1.56628,0.75195 -2.28632,1.21124l1.34406,4.35797c-0.39157,0.32281 -0.76172,0.66403 -1.1116,1.02493l-4.72046,-1.24011c-0.49771,0.664 -0.93222,1.37784 -1.31375,2.12057l3.51419,3.13504c-0.168,0.45929 -0.30695,0.92905 -0.41183,1.41721l-4.74188,1.09442c-0.0329,0.40152 -0.06445,0.80176 -0.06445,1.22171s0.03156,0.81097 0.06445,1.22043l4.74188,1.09442c0.10489,0.47897 0.24384,0.94745 0.41183,1.40799l-3.51419,3.13629c0.38153,0.74149 0.81604,1.45532 1.31375,2.11935l4.72046,-1.24011c0.34988,0.36087 0.72003,0.70337 1.1116,1.0249l-1.34406,4.358c0.72003,0.45926 1.49179,0.86078 2.28632,1.21121l3.40805,-3.2439c0.49771,0.15741 1.00546,0.29391 1.52469,0.38184l1.1861,4.3764c0.44452,0.03015 0.8779,0.05905 1.32254,0.05905s0.88928,-0.0289 1.32355,-0.05905l1.18509,-4.3764c0.52927,-0.09839 1.03741,-0.22443 1.53473,-0.38184l3.39804,3.2439c0.79327,-0.3609 1.56744,-0.75195 2.29803,-1.21121zm-9.73944,-7.68857c-3.25018,0 -5.89651,-2.43292 -5.89651,-5.44318s2.64633,-5.43274 5.89651,-5.43274s5.89551,2.43292 5.89551,5.43274s-2.63528,5.44318 -5.89551,5.44318zm26.86591,11.37204c0.03156,-0.86874 -0.09473,-1.75842 -0.39099,-2.6481l2.14886,-2.83316c-0.3183,-0.55643 -0.68848,-1.09317 -1.11224,-1.57214l-3.67285,0.71259c-0.74017,-0.5853 -1.58789,-1.04459 -2.48694,-1.3674l-1.06989,-3.3226c-0.66565,-0.11679 -1.34381,-0.17584 -2.03113,-0.17584l-1.68378,3.09695c-0.48755,0.08917 -0.97382,0.20599 -1.45001,0.38184c-0.44464,0.15616 -0.85773,0.35168 -1.25934,0.5564l-3.47253,-1.30835c-0.51801,0.41867 -0.99536,0.87921 -1.41907,1.3674l1.57806,3.14676c-0.44568,0.79004 -0.76294,1.64957 -0.89929,2.53925l-3.28305,1.6994c0.03156,0.61673 0.13837,1.24265 0.2858,1.85809l3.65308,0.83984c0.40277,0.82941 0.93091,1.58261 1.58765,2.22696l-0.61389,3.42099c0.56091,0.37009 1.14325,0.68243 1.75702,0.95667l2.97491,-2.11139c0.93073,0.22568 1.90479,0.3136 2.87848,0.24536l2.51868,2.5694c0.34991,-0.08792 0.69965,-0.18506 1.03827,-0.3136c0.30695,-0.10632 0.59265,-0.22314 0.87787,-0.35168l0.06476,-3.46704c0.78314,-0.53799 1.46014,-1.19281 1.98914,-1.93427l3.758,-0.20599c0.25439,-0.57611 0.47693,-1.17188 0.63507,-1.78857l-2.90063,-2.21774zm-7.21814,3.21503c-2.0752,0.73227 -4.41473,-0.22443 -5.20923,-2.14948s0.25391,-4.07455 2.32922,-4.80807c2.08545,-0.74274 4.42505,0.22568 5.21802,2.14948c0.79443,1.92633 -0.25262,4.07581 -2.33801,4.80807z"
      stroke-opacity="null"
      stroke-width="0"
      stroke="#ff0000"
      fill="#56ff56"/>
    <path
      id="svg_59"
      d="m697.06415,317.59891l-1.35559,-4.358c0.39154,-0.32153 0.77307,-0.66403 1.12323,-1.03412l4.71039,1.24933c0.49646,-0.6745 0.93103,-1.37787 1.31116,-2.11935l-3.51294,-3.13629c0.16821,-0.46054 0.3172,-0.92902 0.42322,-1.41721l4.73059,-1.09442c0.03259,-0.40024 0.06458,-0.80176 0.06458,-1.22168s-0.03198,-0.80972 -0.06458,-1.22046l-4.73059,-1.09439c-0.10602,-0.47897 -0.255,-0.94873 -0.42322,-1.40802l3.51294,-3.13504c-0.38013,-0.74274 -0.8147,-1.45657 -1.31116,-2.12057l-4.71039,1.24011c-0.35016,-0.3609 -0.73169,-0.70212 -1.12323,-1.02493l1.35559,-4.35797c-0.73059,-0.45929 -1.50476,-0.85953 -2.29803,-1.21124l-3.39807,3.2439c-0.49731,-0.15741 -1.01654,-0.28345 -1.53473,-0.38181l-1.18506,-4.37643c-0.43427,-0.02887 -0.87891,-0.05902 -1.32355,-0.05902s-0.88928,0.03015 -1.32257,0.05902l-1.1861,4.37643c-0.51923,0.09836 -1.02698,0.2244 -1.53607,0.38181l-3.39667,-3.2439c-0.79449,0.3609 -1.56628,0.75195 -2.28632,1.21124l1.34406,4.35797c-0.39154,0.32281 -0.76172,0.66403 -1.11157,1.02493l-4.72046,-1.24011c-0.49774,0.664 -0.93225,1.37784 -1.31378,2.12057l3.51422,3.13504c-0.16803,0.45929 -0.30695,0.92905 -0.41187,1.41721l-4.74188,1.09442c-0.0329,0.40152 -0.06445,0.80176 -0.06445,1.22171s0.03156,0.81097 0.06445,1.22043l4.74188,1.09442c0.10492,0.47897 0.24384,0.94745 0.41187,1.40799l-3.51422,3.13629c0.38153,0.74149 0.81604,1.45532 1.31378,2.11935l4.72046,-1.24011c0.34985,0.36087 0.72003,0.70337 1.11157,1.0249l-1.34406,4.358c0.72003,0.45926 1.49182,0.86078 2.28632,1.21121l3.40808,-3.2439c0.49768,0.15741 1.00543,0.29391 1.52466,0.38184l1.1861,4.3764c0.44452,0.03015 0.87793,0.05905 1.32257,0.05905s0.88928,-0.0289 1.32355,-0.05905l1.18506,-4.3764c0.5293,-0.09839 1.03741,-0.22443 1.53473,-0.38184l3.39807,3.2439c0.79327,-0.3609 1.56744,-0.75195 2.29803,-1.21121zm-9.73944,-7.68857c-3.25018,0 -5.89655,-2.43292 -5.89655,-5.44318s2.64636,-5.43274 5.89655,-5.43274s5.89551,2.43292 5.89551,5.43274s-2.63531,5.44318 -5.89551,5.44318zm26.86591,11.37204c0.03156,-0.86874 -0.09473,-1.75842 -0.39099,-2.6481l2.14886,-2.83316c-0.3183,-0.55643 -0.68848,-1.09317 -1.11224,-1.57214l-3.67285,0.71259c-0.74017,-0.5853 -1.58789,-1.04459 -2.48694,-1.3674l-1.06989,-3.3226c-0.66565,-0.11679 -1.34381,-0.17584 -2.03113,-0.17584l-1.68378,3.09695c-0.48755,0.08917 -0.97382,0.20599 -1.45001,0.38184c-0.44464,0.15616 -0.85773,0.35168 -1.25934,0.5564l-3.47253,-1.30835c-0.51801,0.41867 -0.99536,0.87921 -1.41907,1.3674l1.57806,3.14676c-0.44568,0.79004 -0.76294,1.64957 -0.89929,2.53925l-3.28308,1.6994c0.03156,0.61673 0.13837,1.24265 0.28583,1.85809l3.65308,0.83984c0.40277,0.82941 0.93091,1.58261 1.58765,2.22696l-0.61389,3.42099c0.56091,0.37009 1.14325,0.68243 1.75702,0.95667l2.97491,-2.11139c0.93073,0.22568 1.90479,0.3136 2.87848,0.24536l2.51868,2.5694c0.34991,-0.08792 0.69965,-0.18506 1.03827,-0.3136c0.30695,-0.10632 0.59265,-0.22314 0.87787,-0.35168l0.06476,-3.46704c0.78314,-0.53799 1.46014,-1.19281 1.98914,-1.93427l3.758,-0.20599c0.25439,-0.57611 0.47693,-1.17188 0.63507,-1.78857l-2.90063,-2.21774zm-7.21814,3.21503c-2.0752,0.73227 -4.41473,-0.22443 -5.20923,-2.14948s0.25391,-4.07455 2.32922,-4.80807c2.08545,-0.74274 4.42505,0.22568 5.21802,2.14948c0.79443,1.92633 -0.25262,4.07581 -2.33801,4.80807z"
      stroke-opacity="null"
      stroke-width="0"
      stroke="#ff0000"
      fill="#56ff56"/>
    <path
      fill="#56ffff"
      stroke-width="0"
      d="m278.40637,465.89056c1.95532,-1.13159 3.82474,-2.43408 5.47205,-3.60535l-49.35056,-0.5365l-6.76959,4.62402l-21.44528,-0.39612c2.68756,-2.10632 5.63094,-4.5795 7.81332,-6.43738l-7.76257,-6.24518l22.8804,0l4.65607,3.90201l50.38638,0l-6.25067,-3.89404c1.92859,-1.22684 4.78372,-2.8638 6.33188,-3.72256l16.94574,9.92377l-16.98413,10.07629l-5.92303,-3.68896l0,0z"
      id="svg_60"
      stroke="#000"
      transform="rotate(-80.7773 253.813 459.579)">Lokaler GameServer</path>
    <g id="svg_9">
      <ellipse fill="#00ffff" stroke="#000" cx="200.50001" cy="525.50003" id="svg_6" rx="37" ry="12.5"/>
      <rect fill="#00ffff" x="163.50001" y="462.00003" width="73" height="65" id="svg_4" stroke-width="0" stroke="#000"/>
      <ellipse fill="#00ffff" stroke="#000" cx="199.50001" cy="458.50003" id="svg_2" rx="37" ry="12.5"/>
      <ellipse fill="#00ffff" stroke="#000" cx="272.50001" cy="542.00003" id="svg_3"/>
      <line fill="#00ffff" stroke="#000000" x1="162.50001" y1="460.00003" x2="163.50001" y2="528.00003" id="svg_7" stroke-linejoin="null" stroke-linecap="null"/>
      <line fill="#00ffff" stroke="#000000" x1="236.49315" y1="460.00003" x2="237.49315" y2="528.00003" id="svg_8" stroke-linejoin="null" stroke-linecap="null"/>
    </g>
  </g>
</svg>
